<svg xmlns="http://www.w3.org/2000/svg" xmlns:v="https://svgstorm.com"
viewBox = "0 0 512 512"
width="512"
height="512">
<g fill="None" fill-opacity="0.0" stroke="#000000" stroke-opacity="0.00" stroke-width="0.3"><path d="
M 0.00 512.00 
L 512.00 512.00
L 512.00 0.00
L 0.00 0.00
L 0.00 512.00
M 270.00 36.00 
C 287.24 37.67 310.65 43.11 326.68 47.32 C 342.71 51.53 365.33 66.10 351.23 83.23 C 337.13 100.36 317.94 81.57 300.93 79.07 C 283.92 76.58 257.22 71.94 238.78 74.78 C 220.34 77.61 200.59 80.70 184.32 88.32 C 168.05 95.94 155.80 103.28 142.25 114.25 C 128.70 125.22 119.13 134.64 108.75 148.75 C 98.37 162.86 91.37 177.17 85.02 194.02 C 78.67 210.88 74.13 231.88 74.00 251.00 C 73.87 270.12 76.12 293.92 81.99 311.01 C 87.86 328.09 94.79 342.23 104.30 356.70 C 113.81 371.16 123.09 381.43 136.25 392.75 C 149.40 404.07 160.89 412.66 177.08 419.92 C 193.26 427.19 210.04 434.54 229.00 436.00 C 247.96 437.46 273.66 441.53 293.00 435.00 C 312.34 428.47 327.08 459.64 309.25 469.25 C 291.42 478.86 267.37 474.83 248.00 476.00 C 228.63 477.17 207.35 470.51 189.98 466.02 C 172.60 461.54 158.21 453.08 143.30 444.70 C 128.40 436.31 117.13 427.18 104.75 415.25 C 92.37 403.31 82.79 392.99 73.25 378.75 C 63.71 364.51 56.88 350.46 50.22 333.78 C 43.57 317.10 39.31 296.79 37.01 277.99 C 34.71 259.19 36.72 233.06 39.98 214.98 C 43.23 196.89 49.30 179.60 56.77 163.77 C 64.24 147.94 71.48 134.46 82.25 121.25 C 93.03 108.05 102.52 97.57 115.75 86.75 C 128.98 75.94 140.97 67.47 156.70 59.70 C 172.42 51.92 188.51 45.45 206.67 41.67 C 224.84 37.90 250.03 34.07 270.00 36.00
M 219.00 266.00 
C 230.31 255.71 240.82 244.53 251.75 233.75 C 262.68 222.97 273.32 212.09 284.25 201.25 C 295.18 190.41 305.76 179.65 316.75 168.75 C 327.75 157.85 338.08 147.25 349.25 136.25 C 360.41 125.25 370.76 114.40 382.25 103.25 C 393.74 92.09 402.53 82.23 414.75 70.75 C 426.97 59.28 433.36 50.09 447.70 38.70 C 462.03 27.30 485.12 52.98 472.23 66.23 C 459.34 79.48 451.54 86.80 439.75 98.75 C 427.96 110.70 418.03 120.34 406.75 131.75 C 395.47 143.16 385.24 153.07 374.25 164.25 C 363.25 175.43 352.57 185.58 341.75 196.75 C 330.94 207.93 319.88 217.85 309.25 229.25 C 298.62 240.64 287.06 249.76 276.75 261.75 C 266.45 273.75 253.34 281.48 243.75 294.75 C 234.16 308.02 214.43 317.43 203.25 302.75 C 192.07 288.07 180.89 283.56 170.75 270.25 C 160.61 256.94 140.35 250.01 146.93 230.93 C 153.50 211.84 177.25 219.63 186.25 232.75 C 195.24 245.87 210.07 253.05 219.00 266.00
M 421.00 384.00 
C 438.61 386.79 475.88 374.10 476.00 402.00 C 476.12 429.91 438.84 418.98 421.00 421.00
C 418.04 438.61 430.91 474.98 403.00 476.00 C 375.08 477.02 385.87 438.83 384.00 421.00
C 365.89 417.86 329.82 431.23 329.00 403.00 C 328.18 374.77 365.76 386.08 384.00 384.00
C 387.01 365.97 373.78 329.36 402.00 329.00 C 430.22 328.64 418.80 365.68 421.00 384.00 Z"/>
</g>
<g fill="None" fill-opacity="0.0" stroke="#BAB0D6" stroke-opacity="0.97" stroke-width="0.3"><path d="
M 270.00 36.00 
C 250.03 34.07 224.84 37.90 206.67 41.67 C 188.51 45.45 172.42 51.92 156.70 59.70 C 140.97 67.47 128.98 75.94 115.75 86.75 C 102.52 97.57 93.03 108.05 82.25 121.25 C 71.48 134.46 64.24 147.94 56.77 163.77 C 49.30 179.60 43.23 196.89 39.98 214.98 C 36.72 233.06 34.71 259.19 37.01 277.99 C 39.31 296.79 43.57 317.10 50.22 333.78 C 56.88 350.46 63.71 364.51 73.25 378.75 C 82.79 392.99 92.37 403.31 104.75 415.25 C 117.13 427.18 128.40 436.31 143.30 444.70 C 158.21 453.08 172.60 461.54 189.98 466.02 C 207.35 470.51 228.63 477.17 248.00 476.00 C 267.37 474.83 291.42 478.86 309.25 469.25 C 327.08 459.64 312.34 428.47 293.00 435.00 C 273.66 441.53 247.96 437.46 229.00 436.00 C 210.04 434.54 193.26 427.19 177.08 419.92 C 160.89 412.66 149.40 404.07 136.25 392.75 C 123.09 381.43 113.81 371.16 104.30 356.70 C 94.79 342.23 87.86 328.09 81.99 311.01 C 76.12 293.92 73.87 270.12 74.00 251.00 C 74.13 231.88 78.67 210.88 85.02 194.02 C 91.37 177.17 98.37 162.86 108.75 148.75 C 119.13 134.64 128.70 125.22 142.25 114.25 C 155.80 103.28 168.05 95.94 184.32 88.32 C 200.59 80.70 220.34 77.61 238.78 74.78 C 257.22 71.94 283.92 76.58 300.93 79.07 C 317.94 81.57 337.13 100.36 351.23 83.23 C 365.33 66.10 342.71 51.53 326.68 47.32 C 310.65 43.11 287.24 37.67 270.00 36.00 Z"/>
</g>
<g fill="None" fill-opacity="0.0" stroke="#BAB0D6" stroke-opacity="0.96" stroke-width="0.3"><path d="
M 219.00 266.00 
C 210.07 253.05 195.24 245.87 186.25 232.75 C 177.25 219.63 153.50 211.84 146.93 230.93 C 140.35 250.01 160.61 256.94 170.75 270.25 C 180.89 283.56 192.07 288.07 203.25 302.75 C 214.43 317.43 234.16 308.02 243.75 294.75 C 253.34 281.48 266.45 273.75 276.75 261.75 C 287.06 249.76 298.62 240.64 309.25 229.25 C 319.88 217.85 330.94 207.93 341.75 196.75 C 352.57 185.58 363.25 175.43 374.25 164.25 C 385.24 153.07 395.47 143.16 406.75 131.75 C 418.03 120.34 427.96 110.70 439.75 98.75 C 451.54 86.80 459.34 79.48 472.23 66.23 C 485.12 52.98 462.03 27.30 447.70 38.70 C 433.36 50.09 426.97 59.28 414.75 70.75 C 402.53 82.23 393.74 92.09 382.25 103.25 C 370.76 114.40 360.41 125.25 349.25 136.25 C 338.08 147.25 327.75 157.85 316.75 168.75 C 305.76 179.65 295.18 190.41 284.25 201.25 C 273.32 212.09 262.68 222.97 251.75 233.75 C 240.82 244.53 230.31 255.71 219.00 266.00 Z"/>
</g>
<g fill="None" fill-opacity="0.0" stroke="#B9AFD6" stroke-opacity="0.98" stroke-width="0.3"><path d="
M 421.00 384.00 
C 418.80 365.68 430.22 328.64 402.00 329.00 C 373.78 329.36 387.01 365.97 384.00 384.00
C 365.76 386.08 328.18 374.77 329.00 403.00 C 329.82 431.23 365.89 417.86 384.00 421.00
C 385.87 438.83 375.08 477.02 403.00 476.00 C 430.91 474.98 418.04 438.61 421.00 421.00
C 438.84 418.98 476.12 429.91 476.00 402.00 C 475.88 374.10 438.61 386.79 421.00 384.00 Z"/>
</g>
<g fill="#000000" fill-opacity="0.00" stroke="None">
<path d="
M 0.00 512.00 
L 512.00 512.00
L 512.00 0.00
L 0.00 0.00
L 0.00 512.00
M 270.00 36.00 
C 287.24 37.67 310.65 43.11 326.68 47.32 C 342.71 51.53 365.33 66.10 351.23 83.23 C 337.13 100.36 317.94 81.57 300.93 79.07 C 283.92 76.58 257.22 71.94 238.78 74.78 C 220.34 77.61 200.59 80.70 184.32 88.32 C 168.05 95.94 155.80 103.28 142.25 114.25 C 128.70 125.22 119.13 134.64 108.75 148.75 C 98.37 162.86 91.37 177.17 85.02 194.02 C 78.67 210.88 74.13 231.88 74.00 251.00 C 73.87 270.12 76.12 293.92 81.99 311.01 C 87.86 328.09 94.79 342.23 104.30 356.70 C 113.81 371.16 123.09 381.43 136.25 392.75 C 149.40 404.07 160.89 412.66 177.08 419.92 C 193.26 427.19 210.04 434.54 229.00 436.00 C 247.96 437.46 273.66 441.53 293.00 435.00 C 312.34 428.47 327.08 459.64 309.25 469.25 C 291.42 478.86 267.37 474.83 248.00 476.00 C 228.63 477.17 207.35 470.51 189.98 466.02 C 172.60 461.54 158.21 453.08 143.30 444.70 C 128.40 436.31 117.13 427.18 104.75 415.25 C 92.37 403.31 82.79 392.99 73.25 378.75 C 63.71 364.51 56.88 350.46 50.22 333.78 C 43.57 317.10 39.31 296.79 37.01 277.99 C 34.71 259.19 36.72 233.06 39.98 214.98 C 43.23 196.89 49.30 179.60 56.77 163.77 C 64.24 147.94 71.48 134.46 82.25 121.25 C 93.03 108.05 102.52 97.57 115.75 86.75 C 128.98 75.94 140.97 67.47 156.70 59.70 C 172.42 51.92 188.51 45.45 206.67 41.67 C 224.84 37.90 250.03 34.07 270.00 36.00
M 219.00 266.00 
C 230.31 255.71 240.82 244.53 251.75 233.75 C 262.68 222.97 273.32 212.09 284.25 201.25 C 295.18 190.41 305.76 179.65 316.75 168.75 C 327.75 157.85 338.08 147.25 349.25 136.25 C 360.41 125.25 370.76 114.40 382.25 103.25 C 393.74 92.09 402.53 82.23 414.75 70.75 C 426.97 59.28 433.36 50.09 447.70 38.70 C 462.03 27.30 485.12 52.98 472.23 66.23 C 459.34 79.48 451.54 86.80 439.75 98.75 C 427.96 110.70 418.03 120.34 406.75 131.75 C 395.47 143.16 385.24 153.07 374.25 164.25 C 363.25 175.43 352.57 185.58 341.75 196.75 C 330.94 207.93 319.88 217.85 309.25 229.25 C 298.62 240.64 287.06 249.76 276.75 261.75 C 266.45 273.75 253.34 281.48 243.75 294.75 C 234.16 308.02 214.43 317.43 203.25 302.75 C 192.07 288.07 180.89 283.56 170.75 270.25 C 160.61 256.94 140.35 250.01 146.93 230.93 C 153.50 211.84 177.25 219.63 186.25 232.75 C 195.24 245.87 210.07 253.05 219.00 266.00
M 421.00 384.00 
C 438.61 386.79 475.88 374.10 476.00 402.00 C 476.12 429.91 438.84 418.98 421.00 421.00
C 418.04 438.61 430.91 474.98 403.00 476.00 C 375.08 477.02 385.87 438.83 384.00 421.00
C 365.89 417.86 329.82 431.23 329.00 403.00 C 328.18 374.77 365.76 386.08 384.00 384.00
C 387.01 365.97 373.78 329.36 402.00 329.00 C 430.22 328.64 418.80 365.68 421.00 384.00 Z"/>
</g>
<g fill="#BAB0D6" fill-opacity="0.97" stroke="None">
<path d="
M 270.00 36.00 
C 250.03 34.07 224.84 37.90 206.67 41.67 C 188.51 45.45 172.42 51.92 156.70 59.70 C 140.97 67.47 128.98 75.94 115.75 86.75 C 102.52 97.57 93.03 108.05 82.25 121.25 C 71.48 134.46 64.24 147.94 56.77 163.77 C 49.30 179.60 43.23 196.89 39.98 214.98 C 36.72 233.06 34.71 259.19 37.01 277.99 C 39.31 296.79 43.57 317.10 50.22 333.78 C 56.88 350.46 63.71 364.51 73.25 378.75 C 82.79 392.99 92.37 403.31 104.75 415.25 C 117.13 427.18 128.40 436.31 143.30 444.70 C 158.21 453.08 172.60 461.54 189.98 466.02 C 207.35 470.51 228.63 477.17 248.00 476.00 C 267.37 474.83 291.42 478.86 309.25 469.25 C 327.08 459.64 312.34 428.47 293.00 435.00 C 273.66 441.53 247.96 437.46 229.00 436.00 C 210.04 434.54 193.26 427.19 177.08 419.92 C 160.89 412.66 149.40 404.07 136.25 392.75 C 123.09 381.43 113.81 371.16 104.30 356.70 C 94.79 342.23 87.86 328.09 81.99 311.01 C 76.12 293.92 73.87 270.12 74.00 251.00 C 74.13 231.88 78.67 210.88 85.02 194.02 C 91.37 177.17 98.37 162.86 108.75 148.75 C 119.13 134.64 128.70 125.22 142.25 114.25 C 155.80 103.28 168.05 95.94 184.32 88.32 C 200.59 80.70 220.34 77.61 238.78 74.78 C 257.22 71.94 283.92 76.58 300.93 79.07 C 317.94 81.57 337.13 100.36 351.23 83.23 C 365.33 66.10 342.71 51.53 326.68 47.32 C 310.65 43.11 287.24 37.67 270.00 36.00 Z"/>
</g>
<g fill="#BAB0D6" fill-opacity="0.96" stroke="None">
<path d="
M 219.00 266.00 
C 210.07 253.05 195.24 245.87 186.25 232.75 C 177.25 219.63 153.50 211.84 146.93 230.93 C 140.35 250.01 160.61 256.94 170.75 270.25 C 180.89 283.56 192.07 288.07 203.25 302.75 C 214.43 317.43 234.16 308.02 243.75 294.75 C 253.34 281.48 266.45 273.75 276.75 261.75 C 287.06 249.76 298.62 240.64 309.25 229.25 C 319.88 217.85 330.94 207.93 341.75 196.75 C 352.57 185.58 363.25 175.43 374.25 164.25 C 385.24 153.07 395.47 143.16 406.75 131.75 C 418.03 120.34 427.96 110.70 439.75 98.75 C 451.54 86.80 459.34 79.48 472.23 66.23 C 485.12 52.98 462.03 27.30 447.70 38.70 C 433.36 50.09 426.97 59.28 414.75 70.75 C 402.53 82.23 393.74 92.09 382.25 103.25 C 370.76 114.40 360.41 125.25 349.25 136.25 C 338.08 147.25 327.75 157.85 316.75 168.75 C 305.76 179.65 295.18 190.41 284.25 201.25 C 273.32 212.09 262.68 222.97 251.75 233.75 C 240.82 244.53 230.31 255.71 219.00 266.00 Z"/>
</g>
<g fill="#B9AFD6" fill-opacity="0.98" stroke="None">
<path d="
M 421.00 384.00 
C 418.80 365.68 430.22 328.64 402.00 329.00 C 373.78 329.36 387.01 365.97 384.00 384.00
C 365.76 386.08 328.18 374.77 329.00 403.00 C 329.82 431.23 365.89 417.86 384.00 421.00
C 385.87 438.83 375.08 477.02 403.00 476.00 C 430.91 474.98 418.04 438.61 421.00 421.00
C 438.84 418.98 476.12 429.91 476.00 402.00 C 475.88 374.10 438.61 386.79 421.00 384.00 Z"/>
</g>
</svg>