<svg xmlns="http://www.w3.org/2000/svg" xmlns:v="https://svgstorm.com"
viewBox = "0 0 256 256"
width="256"
height="256">
<g fill="None" fill-opacity="0.0" stroke="#000000" stroke-opacity="0.00" stroke-width="0.3"><path d="
M 0.00 256.00 
L 256.00 256.00
L 256.00 0.00
L 0.00 0.00
L 0.00 256.00
M 115.00 24.00 
C 142.29 19.49 163.90 28.54 183.75 40.59 C 203.61 52.64 220.74 74.04 227.71 96.30 C 234.68 118.56 231.56 150.26 222.87 169.92 C 214.18 189.58 192.90 212.49 172.92 221.92 C 152.94 231.35 123.31 233.93 99.75 228.20 C 76.19 222.47 56.81 205.48 42.61 186.25 C 28.41 167.01 22.23 144.17 24.79 117.77 C 27.34 91.37 34.89 74.52 53.25 55.25 C 71.60 35.97 91.16 27.94 115.00 24.00 Z"/>
</g>
<g fill="None" fill-opacity="0.0" stroke="#000000" stroke-opacity="0.99" stroke-width="0.3"><path d="
M 115.00 24.00 
C 91.16 27.94 71.60 35.97 53.25 55.25 C 34.89 74.52 27.34 91.37 24.79 117.77 C 22.23 144.17 28.41 167.01 42.61 186.25 C 56.81 205.48 76.19 222.47 99.75 228.20 C 123.31 233.93 152.94 231.35 172.92 221.92 C 192.90 212.49 214.18 189.58 222.87 169.92 C 231.56 150.26 234.68 118.56 227.71 96.30 C 220.74 74.04 203.61 52.64 183.75 40.59 C 163.90 28.54 142.29 19.49 115.00 24.00
M 120.00 40.00 
C 120.00 98.67 120.00 157.33 120.00 216.00
C 97.69 212.44 78.88 205.48 62.92 187.08 C 46.96 168.69 39.95 153.58 40.00 127.00 C 40.05 100.42 47.56 87.42 63.75 68.75 C 79.94 50.07 97.88 43.46 120.00 40.00 Z"/>
</g>
<g fill="None" fill-opacity="0.0" stroke="#000000" stroke-opacity="0.01" stroke-width="0.3"><path d="
M 120.00 40.00 
C 97.88 43.46 79.94 50.07 63.75 68.75 C 47.56 87.42 40.05 100.42 40.00 127.00 C 39.95 153.58 46.96 168.69 62.92 187.08 C 78.88 205.48 97.69 212.44 120.00 216.00
C 120.00 157.33 120.00 98.67 120.00 40.00 Z"/>
</g>
<g fill="#000000" fill-opacity="0.00" stroke="None">
<path d="
M 0.00 256.00 
L 256.00 256.00
L 256.00 0.00
L 0.00 0.00
L 0.00 256.00
M 115.00 24.00 
C 142.29 19.49 163.90 28.54 183.75 40.59 C 203.61 52.64 220.74 74.04 227.71 96.30 C 234.68 118.56 231.56 150.26 222.87 169.92 C 214.18 189.58 192.90 212.49 172.92 221.92 C 152.94 231.35 123.31 233.93 99.75 228.20 C 76.19 222.47 56.81 205.48 42.61 186.25 C 28.41 167.01 22.23 144.17 24.79 117.77 C 27.34 91.37 34.89 74.52 53.25 55.25 C 71.60 35.97 91.16 27.94 115.00 24.00 Z"/>
</g>
<g fill="#000000" fill-opacity="0.99" stroke="None">
<path d="
M 115.00 24.00 
C 91.16 27.94 71.60 35.97 53.25 55.25 C 34.89 74.52 27.34 91.37 24.79 117.77 C 22.23 144.17 28.41 167.01 42.61 186.25 C 56.81 205.48 76.19 222.47 99.75 228.20 C 123.31 233.93 152.94 231.35 172.92 221.92 C 192.90 212.49 214.18 189.58 222.87 169.92 C 231.56 150.26 234.68 118.56 227.71 96.30 C 220.74 74.04 203.61 52.64 183.75 40.59 C 163.90 28.54 142.29 19.49 115.00 24.00
M 120.00 40.00 
C 120.00 98.67 120.00 157.33 120.00 216.00
C 97.69 212.44 78.88 205.48 62.92 187.08 C 46.96 168.69 39.95 153.58 40.00 127.00 C 40.05 100.42 47.56 87.42 63.75 68.75 C 79.94 50.07 97.88 43.46 120.00 40.00 Z"/>
</g>
<g fill="#000000" fill-opacity="0.01" stroke="None">
<path d="
M 120.00 40.00 
C 97.88 43.46 79.94 50.07 63.75 68.75 C 47.56 87.42 40.05 100.42 40.00 127.00 C 39.95 153.58 46.96 168.69 62.92 187.08 C 78.88 205.48 97.69 212.44 120.00 216.00
C 120.00 157.33 120.00 98.67 120.00 40.00 Z"/>
</g>
</svg>