<svg xmlns="http://www.w3.org/2000/svg" xmlns:v="https://svgstorm.com"
viewBox = "0 0 512 512"
width="512"
height="512">
<g fill="None" fill-opacity="0.0" stroke="#000000" stroke-opacity="0.00" stroke-width="0.3"><path d="
M 0.00 512.00 
L 512.00 512.00
L 512.00 0.00
L 0.00 0.00
L 0.00 512.00
M 276.00 48.00 
C 387.77 58.82 474.50 162.38 464.00 276.00 C 453.50 389.62 349.31 473.07 236.33 463.67 C 123.35 454.27 37.68 348.58 48.00 236.00 C 58.32 123.42 162.44 37.01 276.00 48.00 Z"/>
</g>
<g fill="None" fill-opacity="0.0" stroke="#FFFFFF" stroke-opacity="0.99" stroke-width="0.3"><path d="
M 276.00 48.00 
C 162.44 37.01 58.32 123.42 48.00 236.00 C 37.68 348.58 123.35 454.27 236.33 463.67 C 349.31 473.07 453.50 389.62 464.00 276.00 C 474.50 162.38 387.77 58.82 276.00 48.00
M 240.00 81.00 
C 240.00 197.67 240.00 314.33 240.00 431.00
C 151.89 424.66 80.01 343.59 80.02 255.98 C 80.04 168.36 151.89 87.36 240.00 81.00 Z"/>
</g>
<g fill="None" fill-opacity="0.0" stroke="#000000" stroke-opacity="0.00" stroke-width="0.3"><path d="
M 240.00 81.00 
C 151.89 87.36 80.04 168.36 80.02 255.98 C 80.01 343.59 151.89 424.66 240.00 431.00
C 240.00 314.33 240.00 197.67 240.00 81.00 Z"/>
</g>
<g fill="#000000" fill-opacity="0.00" stroke="None">
<path d="
M 0.00 512.00 
L 512.00 512.00
L 512.00 0.00
L 0.00 0.00
L 0.00 512.00
M 276.00 48.00 
C 387.77 58.82 474.50 162.38 464.00 276.00 C 453.50 389.62 349.31 473.07 236.33 463.67 C 123.35 454.27 37.68 348.58 48.00 236.00 C 58.32 123.42 162.44 37.01 276.00 48.00 Z"/>
</g>
<g fill="#FFFFFF" fill-opacity="0.99" stroke="None">
<path d="
M 276.00 48.00 
C 162.44 37.01 58.32 123.42 48.00 236.00 C 37.68 348.58 123.35 454.27 236.33 463.67 C 349.31 473.07 453.50 389.62 464.00 276.00 C 474.50 162.38 387.77 58.82 276.00 48.00
M 240.00 81.00 
C 240.00 197.67 240.00 314.33 240.00 431.00
C 151.89 424.66 80.01 343.59 80.02 255.98 C 80.04 168.36 151.89 87.36 240.00 81.00 Z"/>
</g>
<g fill="#000000" fill-opacity="0.00" stroke="None">
<path d="
M 240.00 81.00 
C 151.89 87.36 80.04 168.36 80.02 255.98 C 80.01 343.59 151.89 424.66 240.00 431.00
C 240.00 314.33 240.00 197.67 240.00 81.00 Z"/>
</g>
</svg>